<mxfile host="app.diagrams.net" agent="Mozilla/5.0 (Windows NT 10.0; Win64; x64) AppleWebKit/537.36 (KHTML, like Gecko) Chrome/135.0.0.0 Safari/537.36 Edg/135.0.0.0" version="26.2.12">
  <diagram name="Pagina-1" id="lDa3sYO7af7ivnISboQP">
    <mxGraphModel dx="1420" dy="752" grid="1" gridSize="10" guides="1" tooltips="1" connect="1" arrows="1" fold="1" page="1" pageScale="1" pageWidth="827" pageHeight="1169" math="0" shadow="0">
      <root>
        <mxCell id="0" />
        <mxCell id="1" parent="0" />
        <mxCell id="AOQJlEqOTlSTGVziujN7-1" value="" style="shape=mxgraph.networks2.icon;aspect=fixed;fillColor=#EDEDED;strokeColor=#000000;gradientColor=#5B6163;network2IconShadow=1;network2bgFillColor=none;network2Icon=mxgraph.networks2.desktop_pc;network2IconXOffset=-0.0034;network2IconYOffset=0.00035;network2IconW=0.453;network2IconH=0.9995;" parent="1" vertex="1">
          <mxGeometry x="48.67" y="40" width="22.650000000000002" height="49.975" as="geometry" />
        </mxCell>
        <mxCell id="AOQJlEqOTlSTGVziujN7-2" value="" style="shape=mxgraph.networks2.icon;aspect=fixed;fillColor=#EDEDED;strokeColor=#000000;gradientColor=#5B6163;network2IconShadow=1;network2bgFillColor=none;network2Icon=mxgraph.networks2.desktop_pc;network2IconXOffset=-0.0034;network2IconYOffset=0.00035;network2IconW=0.453;network2IconH=0.9995;" parent="1" vertex="1">
          <mxGeometry x="148.67" y="40" width="22.650000000000002" height="49.975" as="geometry" />
        </mxCell>
        <mxCell id="AOQJlEqOTlSTGVziujN7-5" value="&lt;font style=&quot;font-size: 40px;&quot;&gt;...&lt;/font&gt;" style="text;html=1;align=center;verticalAlign=middle;whiteSpace=wrap;rounded=0;" parent="1" vertex="1">
          <mxGeometry x="198.67" y="40" width="60" height="40" as="geometry" />
        </mxCell>
        <mxCell id="AOQJlEqOTlSTGVziujN7-64" style="edgeStyle=orthogonalEdgeStyle;rounded=0;orthogonalLoop=1;jettySize=auto;html=1;exitX=0.5;exitY=1;exitDx=0;exitDy=0;entryX=0;entryY=0.5;entryDx=0;entryDy=0;" parent="1" source="AOQJlEqOTlSTGVziujN7-15" target="AOQJlEqOTlSTGVziujN7-24" edge="1">
          <mxGeometry relative="1" as="geometry">
            <mxPoint x="160" y="290" as="sourcePoint" />
          </mxGeometry>
        </mxCell>
        <mxCell id="AOQJlEqOTlSTGVziujN7-19" style="edgeStyle=orthogonalEdgeStyle;rounded=0;orthogonalLoop=1;jettySize=auto;html=1;exitX=0.5;exitY=1;exitDx=0;exitDy=0;" parent="1" source="AOQJlEqOTlSTGVziujN7-7" edge="1">
          <mxGeometry relative="1" as="geometry">
            <mxPoint x="160" y="190" as="targetPoint" />
          </mxGeometry>
        </mxCell>
        <mxCell id="AOQJlEqOTlSTGVziujN7-7" value="&lt;font style=&quot;font-size: 14px;&quot;&gt;192.168.1.10&lt;/font&gt;" style="text;html=1;align=center;verticalAlign=middle;whiteSpace=wrap;rounded=0;" parent="1" vertex="1">
          <mxGeometry x="30.000000000000014" y="100" width="60" height="30" as="geometry" />
        </mxCell>
        <mxCell id="AOQJlEqOTlSTGVziujN7-21" style="edgeStyle=orthogonalEdgeStyle;rounded=0;orthogonalLoop=1;jettySize=auto;html=1;exitX=0.5;exitY=1;exitDx=0;exitDy=0;" parent="1" source="AOQJlEqOTlSTGVziujN7-8" edge="1">
          <mxGeometry relative="1" as="geometry">
            <mxPoint x="160" y="190" as="targetPoint" />
          </mxGeometry>
        </mxCell>
        <mxCell id="AOQJlEqOTlSTGVziujN7-8" value="&lt;font style=&quot;font-size: 14px;&quot;&gt;192.168.1.11&lt;/font&gt;" style="text;html=1;align=center;verticalAlign=middle;whiteSpace=wrap;rounded=0;" parent="1" vertex="1">
          <mxGeometry x="130" y="100" width="60" height="30" as="geometry" />
        </mxCell>
        <mxCell id="AOQJlEqOTlSTGVziujN7-11" value="" style="shape=mxgraph.networks2.icon;aspect=fixed;fillColor=#EDEDED;strokeColor=#000000;gradientColor=#5B6163;network2IconShadow=1;network2bgFillColor=none;network2Icon=mxgraph.networks2.desktop_pc;network2IconXOffset=-0.0034;network2IconYOffset=0.00035;network2IconW=0.453;network2IconH=0.9995;" parent="1" vertex="1">
          <mxGeometry x="277.34000000000003" y="40" width="22.650000000000002" height="49.975" as="geometry" />
        </mxCell>
        <mxCell id="AOQJlEqOTlSTGVziujN7-20" style="edgeStyle=orthogonalEdgeStyle;rounded=0;orthogonalLoop=1;jettySize=auto;html=1;exitX=0.5;exitY=1;exitDx=0;exitDy=0;" parent="1" source="AOQJlEqOTlSTGVziujN7-12" edge="1">
          <mxGeometry relative="1" as="geometry">
            <mxPoint x="160" y="190" as="targetPoint" />
          </mxGeometry>
        </mxCell>
        <mxCell id="AOQJlEqOTlSTGVziujN7-12" value="&lt;font style=&quot;font-size: 14px;&quot;&gt;192.168.1.109&lt;/font&gt;" style="text;html=1;align=center;verticalAlign=middle;whiteSpace=wrap;rounded=0;" parent="1" vertex="1">
          <mxGeometry x="258.67" y="100" width="60" height="30" as="geometry" />
        </mxCell>
        <mxCell id="AOQJlEqOTlSTGVziujN7-14" value="" style="image;html=1;image=img/lib/clip_art/networking/Router_Icon_128x128.png" parent="1" vertex="1">
          <mxGeometry x="210.00000000000003" y="430" width="80" height="80" as="geometry" />
        </mxCell>
        <mxCell id="AOQJlEqOTlSTGVziujN7-15" value="" style="image;html=1;image=img/lib/clip_art/networking/Switch_128x128.png" parent="1" vertex="1">
          <mxGeometry x="129.99" y="190" width="60" height="70" as="geometry" />
        </mxCell>
        <mxCell id="AOQJlEqOTlSTGVziujN7-96" style="edgeStyle=orthogonalEdgeStyle;rounded=0;orthogonalLoop=1;jettySize=auto;html=1;exitX=0.5;exitY=1;exitDx=0;exitDy=0;entryX=0.5;entryY=0;entryDx=0;entryDy=0;" parent="1" source="AOQJlEqOTlSTGVziujN7-24" target="AOQJlEqOTlSTGVziujN7-14" edge="1">
          <mxGeometry relative="1" as="geometry" />
        </mxCell>
        <mxCell id="AOQJlEqOTlSTGVziujN7-24" value="" style="image;html=1;image=img/lib/clip_art/networking/Firewall_02_128x128.png" parent="1" vertex="1">
          <mxGeometry x="220" y="330" width="60" height="60" as="geometry" />
        </mxCell>
        <mxCell id="AOQJlEqOTlSTGVziujN7-25" value="" style="image;html=1;image=img/lib/clip_art/computers/Printer_Commercial_128x128.png" parent="1" vertex="1">
          <mxGeometry x="534.45" y="30.000000000000014" width="80" height="80" as="geometry" />
        </mxCell>
        <mxCell id="SUYBajsiQBrYyVGW0Ti7-18" style="edgeStyle=orthogonalEdgeStyle;rounded=0;orthogonalLoop=1;jettySize=auto;html=1;exitX=0;exitY=0.46;exitDx=-8;exitDy=0;exitPerimeter=0;entryX=1;entryY=0.5;entryDx=0;entryDy=0;" parent="1" source="AOQJlEqOTlSTGVziujN7-26" target="SUYBajsiQBrYyVGW0Ti7-17" edge="1">
          <mxGeometry relative="1" as="geometry" />
        </mxCell>
        <mxCell id="AOQJlEqOTlSTGVziujN7-26" value="" style="image;points=[[0,0.46,0,-8,0]];aspect=fixed;html=1;align=center;shadow=0;dashed=0;image=img/lib/allied_telesis/wireless/Access_Point_Indoor.svg;" parent="1" vertex="1">
          <mxGeometry x="400" y="140" width="36.6" height="54.6" as="geometry" />
        </mxCell>
        <mxCell id="AOQJlEqOTlSTGVziujN7-30" value="" style="sketch=0;pointerEvents=1;shadow=0;dashed=0;html=1;strokeColor=none;fillColor=#434445;aspect=fixed;labelPosition=center;verticalLabelPosition=bottom;verticalAlign=top;align=center;outlineConnect=0;shape=mxgraph.vvd.wi_fi;" parent="1" vertex="1">
          <mxGeometry x="560" y="211.1" width="28.9" height="28.9" as="geometry" />
        </mxCell>
        <mxCell id="SUYBajsiQBrYyVGW0Ti7-19" style="edgeStyle=orthogonalEdgeStyle;rounded=0;orthogonalLoop=1;jettySize=auto;html=1;exitX=0;exitY=0.46;exitDx=-8;exitDy=0;exitPerimeter=0;entryX=1;entryY=0.5;entryDx=0;entryDy=0;" parent="1" source="AOQJlEqOTlSTGVziujN7-31" target="SUYBajsiQBrYyVGW0Ti7-17" edge="1">
          <mxGeometry relative="1" as="geometry" />
        </mxCell>
        <mxCell id="AOQJlEqOTlSTGVziujN7-31" value="" style="image;points=[[0,0.46,0,-8,0]];aspect=fixed;html=1;align=center;shadow=0;dashed=0;image=img/lib/allied_telesis/wireless/Access_Point_Indoor.svg;" parent="1" vertex="1">
          <mxGeometry x="400" y="205.39999999999998" width="36.6" height="54.6" as="geometry" />
        </mxCell>
        <mxCell id="AOQJlEqOTlSTGVziujN7-38" value="&lt;font style=&quot;font-size: 14px;&quot;&gt;192.168.2.2&lt;/font&gt;" style="text;html=1;align=center;verticalAlign=middle;whiteSpace=wrap;rounded=0;" parent="1" vertex="1">
          <mxGeometry x="460" y="160" width="80" height="30" as="geometry" />
        </mxCell>
        <mxCell id="AOQJlEqOTlSTGVziujN7-39" value="&lt;font style=&quot;font-size: 14px;&quot;&gt;192.168.2.3&lt;/font&gt;" style="text;html=1;align=center;verticalAlign=middle;whiteSpace=wrap;rounded=0;" parent="1" vertex="1">
          <mxGeometry x="460" y="220" width="80" height="30" as="geometry" />
        </mxCell>
        <mxCell id="AOQJlEqOTlSTGVziujN7-41" value="&lt;font style=&quot;font-size: 17px;&quot;&gt;192.168.2&lt;/font&gt;&lt;span style=&quot;font-size: 17px; background-color: transparent; color: light-dark(rgb(0, 0, 0), rgb(255, 255, 255));&quot;&gt;.1&lt;/span&gt;" style="text;html=1;align=center;verticalAlign=middle;whiteSpace=wrap;rounded=0;" parent="1" vertex="1">
          <mxGeometry x="360" y="330" width="60" height="30" as="geometry" />
        </mxCell>
        <mxCell id="AOQJlEqOTlSTGVziujN7-52" value="" style="fontColor=#0066CC;verticalAlign=top;verticalLabelPosition=bottom;labelPosition=center;align=center;html=1;outlineConnect=0;fillColor=#CCCCCC;strokeColor=#6881B3;gradientColor=none;gradientDirection=north;strokeWidth=2;shape=mxgraph.networks.tablet;" parent="1" vertex="1">
          <mxGeometry x="670" y="100" width="57.14" height="40" as="geometry" />
        </mxCell>
        <mxCell id="AOQJlEqOTlSTGVziujN7-57" value="&lt;font style=&quot;font-size: 14px;&quot;&gt;192.168.2.8&lt;/font&gt;" style="text;html=1;align=center;verticalAlign=middle;whiteSpace=wrap;rounded=0;" parent="1" vertex="1">
          <mxGeometry x="544.45" y="110" width="60" height="30" as="geometry" />
        </mxCell>
        <mxCell id="AOQJlEqOTlSTGVziujN7-58" value="&lt;span style=&quot;font-size: 14px;&quot;&gt;DHCP&lt;/span&gt;&lt;div&gt;&lt;span style=&quot;font-size: 14px;&quot;&gt;192.168.2.10&lt;/span&gt;&lt;/div&gt;&lt;div&gt;&lt;span style=&quot;font-size: 14px;&quot;&gt;-&lt;/span&gt;&lt;/div&gt;&lt;div&gt;&lt;span style=&quot;font-size: 14px;&quot;&gt;192.168.2.109&lt;/span&gt;&lt;/div&gt;" style="text;html=1;align=center;verticalAlign=middle;whiteSpace=wrap;rounded=0;" parent="1" vertex="1">
          <mxGeometry x="697.14" y="210" width="60" height="30" as="geometry" />
        </mxCell>
        <mxCell id="AOQJlEqOTlSTGVziujN7-95" style="edgeStyle=orthogonalEdgeStyle;rounded=0;orthogonalLoop=1;jettySize=auto;html=1;exitX=0.5;exitY=0;exitDx=0;exitDy=0;entryX=1;entryY=0.75;entryDx=0;entryDy=0;" parent="1" source="AOQJlEqOTlSTGVziujN7-59" target="AOQJlEqOTlSTGVziujN7-24" edge="1">
          <mxGeometry relative="1" as="geometry" />
        </mxCell>
        <mxCell id="AOQJlEqOTlSTGVziujN7-59" value="" style="image;html=1;image=img/lib/clip_art/computers/Server_Rack_128x128.png" parent="1" vertex="1">
          <mxGeometry x="490" y="430" width="80" height="80" as="geometry" />
        </mxCell>
        <mxCell id="AOQJlEqOTlSTGVziujN7-61" value="&lt;font style=&quot;font-size: 17px;&quot;&gt;192.168.3&lt;/font&gt;&lt;span style=&quot;font-size: 17px; background-color: transparent; color: light-dark(rgb(0, 0, 0), rgb(255, 255, 255));&quot;&gt;.1&lt;/span&gt;" style="text;html=1;align=center;verticalAlign=middle;whiteSpace=wrap;rounded=0;" parent="1" vertex="1">
          <mxGeometry x="310" y="380" width="60" height="30" as="geometry" />
        </mxCell>
        <mxCell id="AOQJlEqOTlSTGVziujN7-68" value="&lt;span style=&quot;font-size: 14px;&quot;&gt;DHCP&lt;/span&gt;&lt;div&gt;&lt;span style=&quot;font-size: 14px;&quot;&gt;192.168.2.110&lt;/span&gt;&lt;/div&gt;&lt;div&gt;&lt;span style=&quot;font-size: 14px;&quot;&gt;-&lt;/span&gt;&lt;/div&gt;&lt;div&gt;&lt;span style=&quot;font-size: 14px;&quot;&gt;192.168.2.209&lt;/span&gt;&lt;/div&gt;" style="text;html=1;align=center;verticalAlign=middle;whiteSpace=wrap;rounded=0;" parent="1" vertex="1">
          <mxGeometry x="670" y="360" width="60" height="30" as="geometry" />
        </mxCell>
        <mxCell id="AOQJlEqOTlSTGVziujN7-70" value="" style="endArrow=none;dashed=1;html=1;rounded=0;entryX=0.5;entryY=1;entryDx=0;entryDy=0;" parent="1" edge="1">
          <mxGeometry width="50" height="50" relative="1" as="geometry">
            <mxPoint x="570" y="200" as="sourcePoint" />
            <mxPoint x="570.45" y="140" as="targetPoint" />
          </mxGeometry>
        </mxCell>
        <mxCell id="AOQJlEqOTlSTGVziujN7-71" value="" style="endArrow=none;dashed=1;html=1;rounded=0;entryX=0;entryY=0.5;entryDx=0;entryDy=0;" parent="1" target="AOQJlEqOTlSTGVziujN7-58" edge="1">
          <mxGeometry width="50" height="50" relative="1" as="geometry">
            <mxPoint x="600" y="225" as="sourcePoint" />
            <mxPoint x="584" y="150" as="targetPoint" />
          </mxGeometry>
        </mxCell>
        <mxCell id="AOQJlEqOTlSTGVziujN7-72" value="" style="endArrow=none;dashed=1;html=1;rounded=0;exitX=0;exitY=0.5;exitDx=0;exitDy=0;" parent="1" source="AOQJlEqOTlSTGVziujN7-68" edge="1">
          <mxGeometry width="50" height="50" relative="1" as="geometry">
            <mxPoint x="594" y="220" as="sourcePoint" />
            <mxPoint x="570" y="250" as="targetPoint" />
            <Array as="points">
              <mxPoint x="570" y="375" />
            </Array>
          </mxGeometry>
        </mxCell>
        <mxCell id="AOQJlEqOTlSTGVziujN7-77" value="" style="fontColor=#0066CC;verticalAlign=top;verticalLabelPosition=bottom;labelPosition=center;align=center;html=1;outlineConnect=0;fillColor=#CCCCCC;strokeColor=#6881B3;gradientColor=none;gradientDirection=north;strokeWidth=2;shape=mxgraph.networks.tablet;" parent="1" vertex="1">
          <mxGeometry x="680" y="110" width="57.14" height="40" as="geometry" />
        </mxCell>
        <mxCell id="AOQJlEqOTlSTGVziujN7-78" value="" style="fontColor=#0066CC;verticalAlign=top;verticalLabelPosition=bottom;labelPosition=center;align=center;html=1;outlineConnect=0;fillColor=#CCCCCC;strokeColor=#6881B3;gradientColor=none;gradientDirection=north;strokeWidth=2;shape=mxgraph.networks.tablet;" parent="1" vertex="1">
          <mxGeometry x="690" y="120" width="57.14" height="40" as="geometry" />
        </mxCell>
        <mxCell id="AOQJlEqOTlSTGVziujN7-79" value="" style="fontColor=#0066CC;verticalAlign=top;verticalLabelPosition=bottom;labelPosition=center;align=center;html=1;outlineConnect=0;fillColor=#CCCCCC;strokeColor=#6881B3;gradientColor=none;gradientDirection=north;strokeWidth=2;shape=mxgraph.networks.tablet;" parent="1" vertex="1">
          <mxGeometry x="700" y="130" width="57.14" height="40" as="geometry" />
        </mxCell>
        <mxCell id="AOQJlEqOTlSTGVziujN7-80" value="" style="fontColor=#0066CC;verticalAlign=top;verticalLabelPosition=bottom;labelPosition=center;align=center;html=1;outlineConnect=0;fillColor=#CCCCCC;strokeColor=#6881B3;gradientColor=none;gradientDirection=north;strokeWidth=2;shape=mxgraph.networks.tablet;" parent="1" vertex="1">
          <mxGeometry x="710" y="140" width="57.14" height="40" as="geometry" />
        </mxCell>
        <mxCell id="AOQJlEqOTlSTGVziujN7-86" value="" style="image;points=[];aspect=fixed;html=1;align=center;shadow=0;dashed=0;image=img/lib/allied_telesis/computer_and_terminals/Smartphone.svg;movable=1;resizable=1;rotatable=1;deletable=1;editable=1;locked=0;connectable=1;" parent="1" vertex="1">
          <mxGeometry x="671.4300000000001" y="260" width="19.8" height="43.199999999999996" as="geometry" />
        </mxCell>
        <mxCell id="AOQJlEqOTlSTGVziujN7-89" value="" style="image;points=[];aspect=fixed;html=1;align=center;shadow=0;dashed=0;image=img/lib/allied_telesis/computer_and_terminals/Smartphone.svg;movable=1;resizable=1;rotatable=1;deletable=1;editable=1;locked=0;connectable=1;" parent="1" vertex="1">
          <mxGeometry x="681.4300000000001" y="270" width="19.8" height="43.199999999999996" as="geometry" />
        </mxCell>
        <mxCell id="AOQJlEqOTlSTGVziujN7-90" value="" style="image;points=[];aspect=fixed;html=1;align=center;shadow=0;dashed=0;image=img/lib/allied_telesis/computer_and_terminals/Smartphone.svg;movable=1;resizable=1;rotatable=1;deletable=1;editable=1;locked=0;connectable=1;" parent="1" vertex="1">
          <mxGeometry x="691.4300000000001" y="280" width="19.8" height="43.199999999999996" as="geometry" />
        </mxCell>
        <mxCell id="AOQJlEqOTlSTGVziujN7-91" value="" style="image;points=[];aspect=fixed;html=1;align=center;shadow=0;dashed=0;image=img/lib/allied_telesis/computer_and_terminals/Smartphone.svg;movable=1;resizable=1;rotatable=1;deletable=1;editable=1;locked=0;connectable=1;" parent="1" vertex="1">
          <mxGeometry x="701.4300000000001" y="290" width="19.8" height="43.199999999999996" as="geometry" />
        </mxCell>
        <mxCell id="AOQJlEqOTlSTGVziujN7-92" value="" style="image;points=[];aspect=fixed;html=1;align=center;shadow=0;dashed=0;image=img/lib/allied_telesis/computer_and_terminals/Smartphone.svg;movable=1;resizable=1;rotatable=1;deletable=1;editable=1;locked=0;connectable=1;" parent="1" vertex="1">
          <mxGeometry x="711.4300000000001" y="300" width="19.8" height="43.199999999999996" as="geometry" />
        </mxCell>
        <mxCell id="AOQJlEqOTlSTGVziujN7-98" value="" style="image;sketch=0;aspect=fixed;html=1;points=[];align=center;fontSize=12;image=img/lib/mscae/Docker.svg;" parent="1" vertex="1">
          <mxGeometry x="652.45" y="450" width="48.78" height="40" as="geometry" />
        </mxCell>
        <mxCell id="AOQJlEqOTlSTGVziujN7-101" value="&lt;span style=&quot;font-size: 14px;&quot;&gt;- Server DNS&lt;/span&gt;&lt;div&gt;&lt;span style=&quot;font-size: 14px;&quot;&gt;- Gestionale&lt;/span&gt;&lt;/div&gt;&lt;div&gt;&lt;span style=&quot;font-size: 14px;&quot;&gt;- Server VPN&lt;/span&gt;&lt;/div&gt;&lt;div&gt;&lt;span style=&quot;font-size: 14px;&quot;&gt;- DB&lt;/span&gt;&lt;/div&gt;&lt;div&gt;&lt;span style=&quot;font-size: 14px;&quot;&gt;&lt;br&gt;&lt;/span&gt;&lt;/div&gt;" style="text;html=1;align=left;verticalAlign=middle;whiteSpace=wrap;rounded=0;" parent="1" vertex="1">
          <mxGeometry x="560" y="460" width="90" height="30" as="geometry" />
        </mxCell>
        <mxCell id="AOQJlEqOTlSTGVziujN7-103" value="" style="ellipse;shape=cloud;whiteSpace=wrap;html=1;" parent="1" vertex="1">
          <mxGeometry x="40" y="510" width="120" height="80" as="geometry" />
        </mxCell>
        <mxCell id="AOQJlEqOTlSTGVziujN7-104" value="Internet" style="text;html=1;align=center;verticalAlign=middle;whiteSpace=wrap;rounded=0;" parent="1" vertex="1">
          <mxGeometry x="77.35" y="535" width="60" height="30" as="geometry" />
        </mxCell>
        <mxCell id="AOQJlEqOTlSTGVziujN7-108" value="" style="endArrow=classic;startArrow=classic;html=1;rounded=0;entryX=0.5;entryY=1;entryDx=0;entryDy=0;" parent="1" source="AOQJlEqOTlSTGVziujN7-103" target="AOQJlEqOTlSTGVziujN7-14" edge="1">
          <mxGeometry width="50" height="50" relative="1" as="geometry">
            <mxPoint x="230" y="570" as="sourcePoint" />
            <mxPoint x="280" y="520" as="targetPoint" />
            <Array as="points">
              <mxPoint x="250" y="550" />
            </Array>
          </mxGeometry>
        </mxCell>
        <mxCell id="AOQJlEqOTlSTGVziujN7-109" value="&lt;div&gt;&lt;span style=&quot;font-size: 17px;&quot;&gt;www.techsolution.it&lt;/span&gt;&lt;/div&gt;&lt;span style=&quot;font-size: 17px;&quot;&gt;66.78.10.254&lt;/span&gt;" style="text;html=1;align=center;verticalAlign=middle;whiteSpace=wrap;rounded=0;" parent="1" vertex="1">
          <mxGeometry x="220" y="560" width="60" height="30" as="geometry" />
        </mxCell>
        <mxCell id="AOQJlEqOTlSTGVziujN7-110" value="&lt;span style=&quot;font-size: 17px;&quot;&gt;&lt;b&gt;CONFIGURAZIONE ROUTER:&lt;/b&gt;&lt;/span&gt;&lt;div&gt;&lt;span style=&quot;font-size: 17px;&quot;&gt;&lt;br&gt;&lt;/span&gt;&lt;/div&gt;&lt;div style=&quot;&quot;&gt;&lt;span style=&quot;font-size: 17px;&quot;&gt;P0 WAN 66.78.10.254&lt;/span&gt;&lt;/div&gt;&lt;div style=&quot;&quot;&gt;&lt;span style=&quot;font-size: 17px;&quot;&gt;P1 LAN 192.168.1.1/24&amp;nbsp;&lt;/span&gt;&lt;/div&gt;&lt;div style=&quot;&quot;&gt;&lt;span style=&quot;font-size: 17px;&quot;&gt;P2 LAN 192.168.2.1/24&lt;/span&gt;&lt;/div&gt;&lt;div style=&quot;&quot;&gt;&lt;span style=&quot;font-size: 17px;&quot;&gt;P3 LAN 192.168.3.1/24&lt;/span&gt;&lt;/div&gt;" style="text;html=1;align=left;verticalAlign=middle;whiteSpace=wrap;rounded=0;" parent="1" vertex="1">
          <mxGeometry x="10" y="650" width="240" height="150" as="geometry" />
        </mxCell>
        <mxCell id="AOQJlEqOTlSTGVziujN7-111" value="&lt;span style=&quot;font-size: 17px;&quot;&gt;&lt;b&gt;DHCP POOL LAN (WIFI)&lt;/b&gt;&lt;/span&gt;&lt;br&gt;&lt;div&gt;&lt;span style=&quot;font-size: 17px;&quot;&gt;&lt;br&gt;&lt;/span&gt;&lt;/div&gt;&lt;div style=&quot;&quot;&gt;&lt;font style=&quot;font-size: 16px;&quot;&gt;Rete 192.168.2.0/24&lt;/font&gt;&lt;/div&gt;&lt;div style=&quot;&quot;&gt;&lt;font style=&quot;font-size: 16px;&quot;&gt;Netmask 255.255.255.0&lt;/font&gt;&lt;/div&gt;&lt;div style=&quot;&quot;&gt;&lt;font style=&quot;font-size: 16px;&quot;&gt;Gateway 192.168.2.1&lt;/font&gt;&lt;/div&gt;&lt;div style=&quot;&quot;&gt;&lt;font style=&quot;font-size: 16px;&quot;&gt;Range1 (192.168.2.10 - 192.168.2.109)&lt;/font&gt;&lt;/div&gt;&lt;div style=&quot;&quot;&gt;&lt;font style=&quot;font-size: 16px;&quot;&gt;Range2 (192.168.2.110 - 192.168.2.209)&lt;/font&gt;&lt;/div&gt;&lt;div style=&quot;&quot;&gt;&lt;font style=&quot;font-size: 16px;&quot;&gt;Server DNS (8.8.8.8, 8.8.4.4)&lt;/font&gt;&lt;/div&gt;" style="text;html=1;align=left;verticalAlign=middle;whiteSpace=wrap;rounded=0;" parent="1" vertex="1">
          <mxGeometry x="10" y="770" width="380" height="260" as="geometry" />
        </mxCell>
        <mxCell id="AOQJlEqOTlSTGVziujN7-112" value="&lt;font style=&quot;font-size: 17px;&quot;&gt;192.168.1&lt;/font&gt;&lt;span style=&quot;font-size: 17px; background-color: transparent; color: light-dark(rgb(0, 0, 0), rgb(255, 255, 255));&quot;&gt;.1&lt;/span&gt;" style="text;html=1;align=center;verticalAlign=middle;whiteSpace=wrap;rounded=0;" parent="1" vertex="1">
          <mxGeometry x="120" y="360" width="60" height="30" as="geometry" />
        </mxCell>
        <mxCell id="AOQJlEqOTlSTGVziujN7-113" value="&lt;font style=&quot;font-size: 16px;&quot;&gt;4x&lt;br&gt;24 porte&lt;/font&gt;&lt;div&gt;&lt;font style=&quot;font-size: 16px;&quot;&gt;(layer 2)&lt;/font&gt;&lt;/div&gt;" style="text;html=1;align=center;verticalAlign=middle;whiteSpace=wrap;rounded=0;" parent="1" vertex="1">
          <mxGeometry x="29.99999999999997" y="200" width="122.66" height="30" as="geometry" />
        </mxCell>
        <mxCell id="SUYBajsiQBrYyVGW0Ti7-1" value="" style="ellipse;shape=cloud;whiteSpace=wrap;html=1;" parent="1" vertex="1">
          <mxGeometry x="10" y="263" width="120" height="80" as="geometry" />
        </mxCell>
        <mxCell id="SUYBajsiQBrYyVGW0Ti7-2" value="LAN1&lt;div&gt;192.168.1.0/24&lt;/div&gt;" style="text;html=1;align=center;verticalAlign=middle;whiteSpace=wrap;rounded=0;" parent="1" vertex="1">
          <mxGeometry x="20" y="290" width="100" height="30" as="geometry" />
        </mxCell>
        <mxCell id="SUYBajsiQBrYyVGW0Ti7-4" value="" style="ellipse;shape=cloud;whiteSpace=wrap;html=1;" parent="1" vertex="1">
          <mxGeometry x="390" y="60" width="120" height="80" as="geometry" />
        </mxCell>
        <mxCell id="SUYBajsiQBrYyVGW0Ti7-5" value="LAN2&lt;div&gt;192.168.2.0/24&lt;/div&gt;" style="text;html=1;align=center;verticalAlign=middle;whiteSpace=wrap;rounded=0;" parent="1" vertex="1">
          <mxGeometry x="400" y="87" width="100" height="30" as="geometry" />
        </mxCell>
        <mxCell id="SUYBajsiQBrYyVGW0Ti7-6" value="" style="ellipse;shape=cloud;whiteSpace=wrap;html=1;" parent="1" vertex="1">
          <mxGeometry x="380" y="380" width="120" height="80" as="geometry" />
        </mxCell>
        <mxCell id="SUYBajsiQBrYyVGW0Ti7-7" value="LAN3 (DMZ)&lt;div&gt;192.168.3.0/24&lt;/div&gt;" style="text;html=1;align=center;verticalAlign=middle;whiteSpace=wrap;rounded=0;" parent="1" vertex="1">
          <mxGeometry x="390" y="407" width="100" height="30" as="geometry" />
        </mxCell>
        <mxCell id="SUYBajsiQBrYyVGW0Ti7-10" value="&lt;span style=&quot;font-size: 17px;&quot;&gt;&lt;b&gt;NAT DINAMICO LAN&lt;/b&gt;&lt;/span&gt;&lt;div&gt;&lt;span style=&quot;background-color: transparent; color: light-dark(rgb(0, 0, 0), rgb(255, 255, 255)); font-size: 17px;&quot;&gt;192.168.1.0/24 =&amp;gt; P0 =&amp;gt;&amp;nbsp;&lt;/span&gt;&lt;span style=&quot;background-color: transparent; color: light-dark(rgb(0, 0, 0), rgb(255, 255, 255)); font-size: 17px; text-align: center;&quot;&gt;66.78.10.254&lt;/span&gt;&lt;/div&gt;&lt;div&gt;&lt;span style=&quot;background-color: transparent; color: light-dark(rgb(0, 0, 0), rgb(255, 255, 255)); font-size: 17px; text-align: center;&quot;&gt;192.168.2.0/24 =&amp;gt; P0 =&amp;gt; 66.78.10.254&lt;/span&gt;&lt;/div&gt;&lt;div&gt;&lt;span style=&quot;background-color: transparent; color: light-dark(rgb(0, 0, 0), rgb(255, 255, 255)); font-size: 17px; text-align: center;&quot;&gt;192.168.3.2/30 =&amp;gt; P0 =&amp;gt; 66.78.10.254&lt;/span&gt;&lt;/div&gt;&lt;div&gt;&lt;br&gt;&lt;/div&gt;&lt;div&gt;&lt;span style=&quot;font-size: 17px;&quot;&gt;&lt;b&gt;NAT&amp;nbsp; STATICO (PORT FORWARDING)&lt;/b&gt;&lt;/span&gt;&lt;div&gt;&lt;span style=&quot;background-color: transparent; color: light-dark(rgb(0, 0, 0), rgb(255, 255, 255)); font-size: 17px; text-align: center;&quot;&gt;66.78.10.254:443 =&amp;gt; 192.168.3.2:443&lt;/span&gt;&lt;/div&gt;&lt;/div&gt;&lt;div&gt;&lt;span style=&quot;background-color: transparent; color: light-dark(rgb(0, 0, 0), rgb(255, 255, 255)); font-size: 17px; text-align: center;&quot;&gt;&lt;br&gt;&lt;/span&gt;&lt;/div&gt;&lt;div&gt;&lt;span style=&quot;font-size: 17px;&quot;&gt;&lt;b&gt;ACL (Access Control List)&lt;/b&gt;&lt;/span&gt;&lt;div&gt;&lt;span style=&quot;font-size: 17px;&quot;&gt;&lt;b&gt;&lt;br&gt;&lt;/b&gt;&lt;/span&gt;&lt;/div&gt;&lt;div&gt;&lt;font style=&quot;font-size: 14px;&quot;&gt;PERMIT/DENY TCP/UDP ORIGINE:PORTA DESTINAZIONE:PORTA&lt;/font&gt;&lt;/div&gt;&lt;div&gt;&lt;font style=&quot;font-size: 14px;&quot;&gt;&lt;br&gt;&lt;/font&gt;&lt;/div&gt;&lt;div&gt;&lt;font style=&quot;font-size: 14px;&quot;&gt;PERMIT TCP/UDP 192.168.1.0/24:ANY ANY:ANY&lt;/font&gt;&lt;/div&gt;&lt;div&gt;&lt;font style=&quot;font-size: 14px;&quot;&gt;PERMIT TCP/UDP 192.168.2.0/24:ANY&amp;nbsp;66.78.10.254:ANY&lt;/font&gt;&lt;/div&gt;&lt;div&gt;&lt;font style=&quot;font-size: 14px;&quot;&gt;PERMIT TCP/UDP 192.168.3.2/24:ANY&amp;nbsp;66.78.10.254:ANY&lt;/font&gt;&lt;/div&gt;&lt;div&gt;&lt;font style=&quot;font-size: 14px;&quot;&gt;PERMIT TCP&amp;nbsp;66.78.10.254:443 192.168.3.2:443&lt;/font&gt;&lt;/div&gt;&lt;div&gt;&lt;font style=&quot;font-size: 14px;&quot;&gt;DENY TCP ANY ANY&lt;/font&gt;&lt;/div&gt;&lt;/div&gt;" style="text;html=1;align=left;verticalAlign=middle;whiteSpace=wrap;rounded=0;" parent="1" vertex="1">
          <mxGeometry x="343.02" y="660" width="462.86" height="340" as="geometry" />
        </mxCell>
        <mxCell id="SUYBajsiQBrYyVGW0Ti7-12" value="Switch&lt;br&gt;managed&lt;br&gt;(layer 3)" style="text;html=1;align=center;verticalAlign=middle;whiteSpace=wrap;rounded=0;" parent="1" vertex="1">
          <mxGeometry x="214.99" y="170" width="110" height="30" as="geometry" />
        </mxCell>
        <mxCell id="SUYBajsiQBrYyVGW0Ti7-16" style="edgeStyle=orthogonalEdgeStyle;rounded=0;orthogonalLoop=1;jettySize=auto;html=1;exitX=0;exitY=0.46;exitDx=-8;exitDy=0;exitPerimeter=0;entryX=1;entryY=0.5;entryDx=0;entryDy=0;" parent="1" source="SUYBajsiQBrYyVGW0Ti7-13" target="SUYBajsiQBrYyVGW0Ti7-17" edge="1">
          <mxGeometry relative="1" as="geometry" />
        </mxCell>
        <mxCell id="SUYBajsiQBrYyVGW0Ti7-13" value="" style="image;points=[[0,0.46,0,-8,0]];aspect=fixed;html=1;align=center;shadow=0;dashed=0;image=img/lib/allied_telesis/wireless/Access_Point_Indoor.svg;" parent="1" vertex="1">
          <mxGeometry x="400" y="268.6" width="36.6" height="54.6" as="geometry" />
        </mxCell>
        <mxCell id="SUYBajsiQBrYyVGW0Ti7-14" value="&lt;font style=&quot;font-size: 14px;&quot;&gt;192.168.2.4&lt;/font&gt;" style="text;html=1;align=center;verticalAlign=middle;whiteSpace=wrap;rounded=0;" parent="1" vertex="1">
          <mxGeometry x="460" y="283.20000000000005" width="80" height="30" as="geometry" />
        </mxCell>
        <mxCell id="SUYBajsiQBrYyVGW0Ti7-20" style="edgeStyle=orthogonalEdgeStyle;rounded=0;orthogonalLoop=1;jettySize=auto;html=1;exitX=0.5;exitY=1;exitDx=0;exitDy=0;entryX=0.5;entryY=0;entryDx=0;entryDy=0;" parent="1" source="SUYBajsiQBrYyVGW0Ti7-17" target="AOQJlEqOTlSTGVziujN7-24" edge="1">
          <mxGeometry relative="1" as="geometry" />
        </mxCell>
        <mxCell id="SUYBajsiQBrYyVGW0Ti7-17" value="" style="image;html=1;image=img/lib/clip_art/networking/Switch_128x128.png" parent="1" vertex="1">
          <mxGeometry x="239.99" y="190" width="60" height="70" as="geometry" />
        </mxCell>
        <mxCell id="SUYBajsiQBrYyVGW0Ti7-22" value="&lt;font style=&quot;font-size: 14px;&quot;&gt;192.168.3.2&lt;/font&gt;" style="text;html=1;align=center;verticalAlign=middle;whiteSpace=wrap;rounded=0;" parent="1" vertex="1">
          <mxGeometry x="490" y="505.00000000000006" width="80" height="30" as="geometry" />
        </mxCell>
        <mxCell id="SUYBajsiQBrYyVGW0Ti7-26" value="INSERIRE NOTE QUI" style="text;whiteSpace=wrap;html=1;" parent="1" vertex="1">
          <mxGeometry x="20" y="1020" width="210" height="40" as="geometry" />
        </mxCell>
        <mxCell id="SUYBajsiQBrYyVGW0Ti7-27" value="" style="ellipse;shape=cloud;whiteSpace=wrap;html=1;" parent="1" vertex="1">
          <mxGeometry x="648.57" y="505" width="120" height="80" as="geometry" />
        </mxCell>
        <mxCell id="SUYBajsiQBrYyVGW0Ti7-28" value="Disaster recovery Cloud" style="text;html=1;align=center;verticalAlign=middle;whiteSpace=wrap;rounded=0;" parent="1" vertex="1">
          <mxGeometry x="681.4299999999998" y="535" width="60" height="30" as="geometry" />
        </mxCell>
      </root>
    </mxGraphModel>
  </diagram>
</mxfile>
